REM DIRINDEX 1\3,1\2\4,1\2\5,1\2\6
REM DIRNAME cjc137,folder01,folder02,folder03,folder04,folder05
TITLE ""
FILE "140.mp3" MP3
  TRACK 01 AUDIO
    TITLE "4:cjc137_6025"
    INDEX 01 00:00:00
  TRACK 02 AUDIO
    TITLE "0:"
    INDEX 01 00:01:09
  TRACK 03 AUDIO
    TITLE "6:cjc137_6026"
    INDEX 01 00:01:21
  TRACK 04 AUDIO
    TITLE "0:"
    INDEX 01 00:02:42
  TRACK 05 AUDIO
    TITLE "5:cjc137_6027"
    INDEX 01 00:02:47
  TRACK 06 AUDIO
    TITLE "0:"
    INDEX 01 00:03:53
  TRACK 07 AUDIO
    TITLE "4:cjc137_6028"
    INDEX 01 00:04:66
  TRACK 08 AUDIO
    TITLE "0:"
    INDEX 01 00:06:02
  TRACK 09 AUDIO
    TITLE "6:cjc137_6029"
    INDEX 01 00:06:10
  TRACK 10 AUDIO
    TITLE "0:"
    INDEX 01 00:07:17
  TRACK 11 AUDIO
    TITLE "5:cjc137_6030"
    INDEX 01 00:07:23
  TRACK 12 AUDIO
    TITLE "0:"
    INDEX 01 00:08:34
  TRACK 13 AUDIO
    TITLE "4:cjc137_6031"
    INDEX 01 00:09:44
  TRACK 14 AUDIO
    TITLE "0:"
    INDEX 01 00:10:74
  TRACK 15 AUDIO
    TITLE "6:cjc137_6032"
    INDEX 01 00:11:05
  TRACK 16 AUDIO
    TITLE "0:"
    INDEX 01 00:12:42
  TRACK 17 AUDIO
    TITLE "5:cjc137_6033"
    INDEX 01 00:12:50
  TRACK 18 AUDIO
    TITLE "0:"
    INDEX 01 00:14:07
  TRACK 19 AUDIO
    TITLE "4:cjc137_6034"
    INDEX 01 00:15:15
  TRACK 20 AUDIO
    TITLE "0:"
    INDEX 01 00:16:22
  TRACK 21 AUDIO
    TITLE "6:cjc137_6035"
    INDEX 01 00:16:30
  TRACK 22 AUDIO
    TITLE "0:"
    INDEX 01 00:17:57
  TRACK 23 AUDIO
    TITLE "5:cjc137_6036"
    INDEX 01 00:17:63
  TRACK 24 AUDIO
    TITLE "0:"
    INDEX 01 00:18:68
  TRACK 25 AUDIO
    TITLE "4:cjc137_6037"
    INDEX 01 00:20:02
  TRACK 26 AUDIO
    TITLE "0:"
    INDEX 01 00:21:31
  TRACK 27 AUDIO
    TITLE "6:cjc137_6038"
    INDEX 01 00:21:39
  TRACK 28 AUDIO
    TITLE "0:"
    INDEX 01 00:22:62
  TRACK 29 AUDIO
    TITLE "5:cjc137_6039"
    INDEX 01 00:22:66
  TRACK 30 AUDIO
    TITLE "0:"
    INDEX 01 00:24:18
  TRACK 31 AUDIO
    TITLE "4:cjc137_6040"
    INDEX 01 00:25:27
  TRACK 32 AUDIO
    TITLE "0:"
    INDEX 01 00:26:54
  TRACK 33 AUDIO
    TITLE "6:cjc137_6041"
    INDEX 01 00:26:64
  TRACK 34 AUDIO
    TITLE "0:"
    INDEX 01 00:28:12
  TRACK 35 AUDIO
    TITLE "5:cjc137_6042"
    INDEX 01 00:28:13
  TRACK 36 AUDIO
    TITLE "0:"
    INDEX 01 00:29:42
  TRACK 37 AUDIO
    TITLE "4:cjc137_6043"
    INDEX 01 00:30:52
  TRACK 38 AUDIO
    TITLE "0:"
    INDEX 01 00:31:57
  TRACK 39 AUDIO
    TITLE "6:cjc137_6044"
    INDEX 01 00:31:63
  TRACK 40 AUDIO
    TITLE "0:"
    INDEX 01 00:32:54
  TRACK 41 AUDIO
    TITLE "5:cjc137_6045"
    INDEX 01 00:32:60
  TRACK 42 AUDIO
    TITLE "0:"
    INDEX 01 00:33:64
  TRACK 43 AUDIO
    TITLE "4:cjc137_6046"
    INDEX 01 00:35:02
  TRACK 44 AUDIO
    TITLE "0:"
    INDEX 01 00:36:15
  TRACK 45 AUDIO
    TITLE "6:cjc137_6047"
    INDEX 01 00:36:23
  TRACK 46 AUDIO
    TITLE "0:"
    INDEX 01 00:37:34
  TRACK 47 AUDIO
    TITLE "5:cjc137_6048"
    INDEX 01 00:37:46
  TRACK 48 AUDIO
    TITLE "0:"
    INDEX 01 00:38:61
  TRACK 49 AUDIO
    TITLE "4:cjc137_6049"
    INDEX 01 00:39:74
  TRACK 50 AUDIO
    TITLE "0:"
    INDEX 01 00:41:00
  TRACK 51 AUDIO
    TITLE "6:cjc137_6050"
    INDEX 01 00:41:12
  TRACK 52 AUDIO
    TITLE "0:"
    INDEX 01 00:41:73
  TRACK 53 AUDIO
    TITLE "5:cjc137_6051"
    INDEX 01 00:42:10
  TRACK 54 AUDIO
    TITLE "0:"
    INDEX 01 00:43:11
  TRACK 55 AUDIO
    TITLE "4:cjc137_6052"
    INDEX 01 00:44:22
  TRACK 56 AUDIO
    TITLE "0:"
    INDEX 01 00:45:30
  TRACK 57 AUDIO
    TITLE "6:cjc137_6053"
    INDEX 01 00:45:47
  TRACK 58 AUDIO
    TITLE "0:"
    INDEX 01 00:46:68
  TRACK 59 AUDIO
    TITLE "5:cjc137_6054"
    INDEX 01 00:46:74
  TRACK 60 AUDIO
    TITLE "0:"
    INDEX 01 00:48:08
  TRACK 61 AUDIO
    TITLE "4:cjc137_6055"
    INDEX 01 00:49:23
  TRACK 62 AUDIO
    TITLE "0:"
    INDEX 01 00:50:31
  TRACK 63 AUDIO
    TITLE "6:cjc137_6056"
    INDEX 01 00:50:42
  TRACK 64 AUDIO
    TITLE "0:"
    INDEX 01 00:51:56
  TRACK 65 AUDIO
    TITLE "5:cjc137_6057"
    INDEX 01 00:51:67
  TRACK 66 AUDIO
    TITLE "0:"
    INDEX 01 00:52:73
  TRACK 67 AUDIO
    TITLE "4:cjc137_6058"
    INDEX 01 00:54:09
  TRACK 68 AUDIO
    TITLE "0:"
    INDEX 01 00:55:38
  TRACK 69 AUDIO
    TITLE "6:cjc137_6059"
    INDEX 01 00:55:42
  TRACK 70 AUDIO
    TITLE "0:"
    INDEX 01 00:57:15
  TRACK 71 AUDIO
    TITLE "5:cjc137_6060"
    INDEX 01 00:57:23
  TRACK 72 AUDIO
    TITLE "0:"
    INDEX 01 00:58:50
  TRACK 73 AUDIO
    TITLE "4:cjc137_6061"
    INDEX 01 00:59:57
  TRACK 74 AUDIO
    TITLE "0:"
    INDEX 01 01:01:09
  TRACK 75 AUDIO
    TITLE "6:cjc137_6062"
    INDEX 01 01:01:17
  TRACK 76 AUDIO
    TITLE "0:"
    INDEX 01 01:02:40
  TRACK 77 AUDIO
    TITLE "5:cjc137_6063"
    INDEX 01 01:02:44
  TRACK 78 AUDIO
    TITLE "0:"
    INDEX 01 01:03:69
  TRACK 79 AUDIO
    TITLE "4:cjc137_6064"
    INDEX 01 01:05:07
  TRACK 80 AUDIO
    TITLE "0:"
    INDEX 01 01:06:32
  TRACK 81 AUDIO
    TITLE "6:cjc137_6065"
    INDEX 01 01:06:38
  TRACK 82 AUDIO
    TITLE "0:"
    INDEX 01 01:08:17
  TRACK 83 AUDIO
    TITLE "5:cjc137_6066"
    INDEX 01 01:08:23
  TRACK 84 AUDIO
    TITLE "0:"
    INDEX 01 01:09:50
  TRACK 85 AUDIO
    TITLE "4:cjc137_6067"
    INDEX 01 01:10:57
  TRACK 86 AUDIO
    TITLE "0:"
    INDEX 01 01:12:13
  TRACK 87 AUDIO
    TITLE "6:cjc137_6068"
    INDEX 01 01:12:23
  TRACK 88 AUDIO
    TITLE "0:"
    INDEX 01 01:13:73
  TRACK 89 AUDIO
    TITLE "5:cjc137_6069"
    INDEX 01 01:14:02
  TRACK 90 AUDIO
    TITLE "0:"
    INDEX 01 01:15:33
  TRACK 91 AUDIO
    TITLE "4:cjc137_6070"
    INDEX 01 01:16:46
  TRACK 92 AUDIO
    TITLE "0:"
    INDEX 01 01:18:09
  TRACK 93 AUDIO
    TITLE "6:cjc137_6071"
    INDEX 01 01:18:17
  TRACK 94 AUDIO
    TITLE "0:"
    INDEX 01 01:19:38
  TRACK 95 AUDIO
    TITLE "5:cjc137_6072"
    INDEX 01 01:19:42
  TRACK 96 AUDIO
    TITLE "0:"
    INDEX 01 01:21:08
  TRACK 97 AUDIO
    TITLE "4:cjc137_6073"
    INDEX 01 01:22:15
  TRACK 98 AUDIO
    TITLE "0:"
    INDEX 01 01:23:20
  TRACK 99 AUDIO
    TITLE "6:cjc137_6074"
    INDEX 01 01:23:26
  TRACK 100 AUDIO
    TITLE "0:"
    INDEX 01 01:24:16
  TRACK 101 AUDIO
    TITLE "5:cjc137_6075"
    INDEX 01 01:24:20
  TRACK 102 AUDIO
    TITLE "0:"
    INDEX 01 01:25:25
  TRACK 103 AUDIO
    TITLE "4:cjc137_6076"
    INDEX 01 01:26:30
  TRACK 104 AUDIO
    TITLE "0:"
    INDEX 01 01:27:40
  TRACK 105 AUDIO
    TITLE "6:cjc137_6077"
    INDEX 01 01:27:46
  TRACK 106 AUDIO
    TITLE "0:"
    INDEX 01 01:28:59
  TRACK 107 AUDIO
    TITLE "5:cjc137_6078"
    INDEX 01 01:28:61
  TRACK 108 AUDIO
    TITLE "0:"
    INDEX 01 01:29:70
  TRACK 109 AUDIO
    TITLE "4:cjc137_6079"
    INDEX 01 01:31:02
  TRACK 110 AUDIO
    TITLE "0:"
    INDEX 01 01:32:06
  TRACK 111 AUDIO
    TITLE "6:cjc137_6080"
    INDEX 01 01:32:17
  TRACK 112 AUDIO
    TITLE "0:"
    INDEX 01 01:33:09
  TRACK 113 AUDIO
    TITLE "5:cjc137_6081"
    INDEX 01 01:33:13
  TRACK 114 AUDIO
    TITLE "0:"
    INDEX 01 01:34:18
  TRACK 115 AUDIO
    TITLE "4:cjc137_6082"
    INDEX 01 01:35:29
  TRACK 116 AUDIO
    TITLE "0:"
    INDEX 01 01:36:60
  TRACK 117 AUDIO
    TITLE "6:cjc137_6083"
    INDEX 01 01:36:64
  TRACK 118 AUDIO
    TITLE "0:"
    INDEX 01 01:38:02
  TRACK 119 AUDIO
    TITLE "5:cjc137_6084"
    INDEX 01 01:38:10
  TRACK 120 AUDIO
    TITLE "0:"
    INDEX 01 01:39:41
